<?xml version="1.0" encoding="UTF-8"?>
<svg version="1.1" xmlns="http://www.w3.org/2000/svg" width="141" height="142">
<path d="M0 0 C6.80396289 1.33121013 11.51863821 4.87519254 17 9 C17.42345703 8.04867187 17.42345703 8.04867187 17.85546875 7.078125 C19 5 19 5 21.3125 3.75 C24.01833686 2.99488274 26.20707882 2.8404045 29 3 C30 6 30 6 30 9 C32.64 9.66 35.28 10.32 38 11 C38 11.66 38 12.32 38 13 C34.7 14.65 31.4 16.3 28 18 C29.65 19.98 31.3 21.96 33 24 C36.05295148 22.86927723 37.60796794 21.38627756 39.5625 18.875 C40.366875 17.92625 41.17125 16.9775 42 16 C42.99 16 43.98 16 45 16 C46 19 46 19 46 21 C49.08764726 15.81716353 51.63483137 10.54808173 54 5 C54.99 5 55.98 5 57 5 C57.84752748 20.94607259 53.007792 33.32412771 42.5625 45.375 C37.96731345 50.22807967 33.48861986 54.77921782 27.09765625 57.015625 C24 57 24 57 21.2265625 54.54296875 C20.33824313 53.44118756 19.47150924 52.32172009 18.625 51.1875 C18.17511719 50.62740234 17.72523437 50.06730469 17.26171875 49.49023438 C14 45.34120916 14 45.34120916 14 43 C13.443125 42.79375 12.88625 42.5875 12.3125 42.375 C8.9663102 40.38537363 7.14237937 38.24417448 5 35 C5.1875 31.125 5.1875 31.125 6 28 C5.34 28 4.68 28 4 28 C3.92523438 28.845625 3.85046875 29.69125 3.7734375 30.5625 C2.95995857 37.58074957 1.92575079 41.89581447 -2.73828125 47.21484375 C-4.73405914 50.03859142 -4.33887679 52.67900741 -4 56 C-5.5220959 57.5220959 -6.88210082 57.12959521 -9 57.1328125 C-9.804375 57.13410156 -10.60875 57.13539062 -11.4375 57.13671875 C-12.283125 57.13285156 -13.12875 57.12898438 -14 57.125 C-14.845625 57.12886719 -15.69125 57.13273437 -16.5625 57.13671875 C-17.366875 57.13542969 -18.17125 57.13414063 -19 57.1328125 C-19.7425 57.13168457 -20.485 57.13055664 -21.25 57.12939453 C-23 57 -23 57 -24 56 C-24.12535652 54.39951798 -24.17574787 52.79284072 -24.1875 51.1875 C-24.20167969 50.31480469 -24.21585938 49.44210938 -24.23046875 48.54296875 C-23.99010406 45.89080915 -23.34187309 44.27535001 -22 42 C-22.4125 42.495 -22.825 42.99 -23.25 43.5 C-25 45 -25 45 -29 45 C-29.103125 45.598125 -29.20625 46.19625 -29.3125 46.8125 C-30.10669061 49.33947013 -31.15277041 50.15277041 -33 52 C-33.99 54.475 -33.99 54.475 -35 57 C-39.95 57 -44.9 57 -50 57 C-51.34071638 51.63713447 -50.73459052 47.23502545 -49 42 C-47.20085814 39.8718722 -45.30405743 38.64575531 -43 37 C-41.13076797 33.85011127 -41.13076797 33.85011127 -40 31 C-41.03125 31.495 -42.0625 31.99 -43.125 32.5 C-46.58512035 33.95799426 -49.21111367 34.57656966 -53 34 C-56.01161715 32.19302971 -57.60015169 30.92464922 -59 27.6875 C-59 23.08158131 -57.23735438 19.23735438 -54 16 C-53.01 16 -52.02 16 -51 16 C-49.64615385 22.27692308 -49.64615385 22.27692308 -51.4375 25.9375 C-52.2109375 26.9584375 -52.2109375 26.9584375 -53 28 C-47.76909169 28.51033252 -44.09416815 27.20285403 -40 24 C-39.278125 22.989375 -38.55625 21.97875 -37.8125 20.9375 C-34.82985141 17.02886573 -30.86050844 16.80206191 -26.25390625 15.82421875 C-16.24254809 13.28832851 -7.26083375 7.26083375 0 0 Z M16 28 C16.33 29.65 16.66 31.3 17 33 C17.99 32.67 18.98 32.34 20 32 C18.68 30.68 17.36 29.36 16 28 Z " fill="#F6F9F9" transform="translate(74,39)"/>
<path d="M0 0 C-0.99 0.33 -1.98 0.66 -3 1 C-3 1.66 -3 2.32 -3 3 C-6.3 3 -9.6 3 -13 3 C-12.54591873 5.52166467 -12.0868593 8.04225816 -11.625 10.5625 C-11.49867187 11.26697266 -11.37234375 11.97144531 -11.2421875 12.69726562 C-10.40718633 17.22714697 -9.33276044 21.59030133 -8 26 C-6.68 26.33 -5.36 26.66 -4 27 C-4.495 25.515 -4.495 25.515 -5 24 C-1.63576723 21.03947516 1.69159287 20.07710178 6 19 C5.61402985 21.79828356 5.19863427 22.8205884 3.0625 24.75 C1 26 1 26 -1 26 C-1.45375 26.495 -1.9075 26.99 -2.375 27.5 C-4 29 -4 29 -8 29 C-8.103125 29.598125 -8.20625 30.19625 -8.3125 30.8125 C-9.10669061 33.33947013 -10.15277041 34.15277041 -12 36 C-12.99 38.475 -12.99 38.475 -14 41 C-18.95 41 -23.9 41 -29 41 C-30.34071638 35.63713447 -29.73459052 31.23502545 -28 26 C-26.20085814 23.8718722 -24.30405743 22.64575531 -22 21 C-20.13076797 17.85011127 -20.13076797 17.85011127 -19 15 C-20.03125 15.495 -21.0625 15.99 -22.125 16.5 C-25.58512035 17.95799426 -28.21111367 18.57656966 -32 18 C-35.01161715 16.19302971 -36.60015169 14.92464922 -38 11.6875 C-38 7.08158131 -36.23735438 3.23735438 -33 0 C-32.01 0 -31.02 0 -30 0 C-28.64615385 6.27692308 -28.64615385 6.27692308 -30.4375 9.9375 C-31.2109375 10.9584375 -31.2109375 10.9584375 -32 12 C-26.76909169 12.51033252 -23.09416815 11.20285403 -19 8 C-18.278125 6.989375 -17.55625 5.97875 -16.8125 4.9375 C-13.78463777 0.90716987 -9.34735275 0.40883545 -4.64453125 -0.65234375 C-2 -1 -2 -1 0 0 Z " fill="#75898A" transform="translate(53,55)"/>
<path d="M0 0 C0.99 0 1.98 0 3 0 C3.84752748 15.94607259 -0.992208 28.32412771 -11.4375 40.375 C-16.03268655 45.22807967 -20.51138014 49.77921782 -26.90234375 52.015625 C-30 52 -30 52 -32.7734375 49.54296875 C-33.66175687 48.44118756 -34.52849076 47.32172009 -35.375 46.1875 C-36.04982422 45.34735352 -36.04982422 45.34735352 -36.73828125 44.49023438 C-40 40.34120916 -40 40.34120916 -40 38 C-40.99 37.67 -41.98 37.34 -43 37 C-40 35 -40 35 -36.9375 35.25 C-34 36 -34 36 -32 38 C-32 38.99 -32 39.98 -32 41 C-24.75888978 40.97337827 -20.03505994 40.09873626 -14.36328125 35.47265625 C-12.77355653 34.08985606 -12.77355653 34.08985606 -13 32 C-13.66 32 -14.32 32 -15 32 C-15.75 28.8125 -15.75 28.8125 -16 25 C-14.72641268 23.28724465 -13.38576923 21.62332967 -12 20 C-11.09094603 17.3473507 -10.56084904 14.7575078 -10 12 C-10.66 11.67 -11.32 11.34 -12 11 C-11.01 11 -10.02 11 -9 11 C-8 14 -8 14 -8 16 C-4.91235274 10.81716353 -2.36516863 5.54808173 0 0 Z " fill="#99ADAE" transform="translate(128,44)"/>
<path d="M0 0 C0.04898438 0.81984375 0.09796875 1.6396875 0.1484375 2.484375 C0.22320312 3.56203125 0.29796875 4.6396875 0.375 5.75 C0.47941406 7.35101563 0.47941406 7.35101563 0.5859375 8.984375 C0.9728223 11.80206432 1.55686166 13.5830366 3 16 C-1.75126904 12.7106599 -1.75126904 12.7106599 -2.875 9.5 C-2.99669295 7.06614092 -2.76681968 5.30045905 -2 3 C-2.66 3 -3.32 3 -4 3 C-4.07476562 3.845625 -4.14953125 4.69125 -4.2265625 5.5625 C-5.04004143 12.58074957 -6.07424921 16.89581447 -10.73828125 22.21484375 C-12.73405914 25.03859142 -12.33887679 27.67900741 -12 31 C-13.5220959 32.5220959 -14.88210082 32.12959521 -17 32.1328125 C-17.804375 32.13410156 -18.60875 32.13539062 -19.4375 32.13671875 C-20.283125 32.13285156 -21.12875 32.12898438 -22 32.125 C-22.845625 32.12886719 -23.69125 32.13273437 -24.5625 32.13671875 C-25.366875 32.13542969 -26.17125 32.13414063 -27 32.1328125 C-27.7425 32.13168457 -28.485 32.13055664 -29.25 32.12939453 C-31 32 -31 32 -32 31 C-32.23828125 28.85546875 -32.23828125 28.85546875 -32.3125 26.1875 C-32.34988281 25.31480469 -32.38726562 24.44210938 -32.42578125 23.54296875 C-32 21 -32 21 -28 17 C-28.66 21.29 -29.32 25.58 -30 30 C-29.34 29.34 -28.68 28.68 -28 28 C-25.3984375 27.5859375 -25.3984375 27.5859375 -22.375 27.375 C-20.60125 27.25125 -18.8275 27.1275 -17 27 C-17.33 23.37 -17.66 19.74 -18 16 C-17.34 16 -16.68 16 -16 16 C-15.7525 15.4225 -15.505 14.845 -15.25 14.25 C-13.81700012 11.67060021 -12.21575324 9.93878408 -10 8 C-9.34 8 -8.68 8 -8 8 C-7.9175 7.4225 -7.835 6.845 -7.75 6.25 C-6.39368324 2.18104973 -4.31919078 0 0 0 Z " fill="#ACB9BA" transform="translate(82,64)"/>
<path d="M0 0 C0.99 0 1.98 0 3 0 C3.55008418 10.34973206 2.56434031 21.56013388 -4 30 C-7.125 30.8125 -7.125 30.8125 -10 31 C-10.66 31.66 -11.32 32.32 -12 33 C-12.99 32.67 -13.98 32.34 -15 32 C-15.75 28.8125 -15.75 28.8125 -16 25 C-14.72641268 23.28724465 -13.38576923 21.62332967 -12 20 C-11.09094603 17.3473507 -10.56084904 14.7575078 -10 12 C-10.66 11.67 -11.32 11.34 -12 11 C-11.01 11 -10.02 11 -9 11 C-8 14 -8 14 -8 16 C-4.91235274 10.81716353 -2.36516863 5.54808173 0 0 Z " fill="#F1F9FA" transform="translate(128,44)"/>
<path d="M0 0 C6.31454359 2.34959761 11.47783995 6.88949903 14.4375 12.9375 C14.623125 13.618125 14.80875 14.29875 15 15 C13.0604886 16.9395114 10.1879288 16.13256629 7.61132812 16.13671875 C6.3496582 16.13091797 6.3496582 16.13091797 5.0625 16.125 C4.22525391 16.12886719 3.38800781 16.13273437 2.52539062 16.13671875 C1.72423828 16.13542969 0.92308594 16.13414063 0.09765625 16.1328125 C-0.63960693 16.13168457 -1.37687012 16.13055664 -2.13647461 16.12939453 C-4 16 -4 16 -6 15 C-6.6271777 7.00348432 -6.6271777 7.00348432 -4.125 3 C-2 1 -2 1 0 0 Z " fill="#86A0A1" transform="translate(78,80)"/>
<path d="M0 0 C1 3 1 3 1 6 C3.64 6.66 6.28 7.32 9 8 C9 8.66 9 9.32 9 10 C4.05 12.475 4.05 12.475 -1 15 C0.65 16.98 2.3 18.96 4 21 C5.65 20.34 7.3 19.68 9 19 C8.34 20.32 7.68 21.64 7 23 C2.39625106 22.72098491 -0.13222701 20.58642116 -3.546875 17.765625 C-5.43783363 15.4680086 -5.83497382 13.96601107 -6 11 C-5.00390625 8.54296875 -5.00390625 8.54296875 -3.5625 6.1875 C-3.08941406 5.39730469 -2.61632812 4.60710938 -2.12890625 3.79296875 C-1.75636719 3.20128906 -1.38382813 2.60960937 -1 2 C-3.64 2.66 -6.28 3.32 -9 4 C-9 5.65 -9 7.3 -9 9 C-11.875 8.6875 -11.875 8.6875 -15 8 C-15.66 7.01 -16.32 6.02 -17 5 C-19.05925139 4.27617533 -19.05925139 4.27617533 -21 4 C-21 3.01 -21 2.02 -21 1 C-17.54074837 2.2491742 -14.85306797 3.67527795 -12 6 C-11.773125 5.38125 -11.54625 4.7625 -11.3125 4.125 C-8.71848972 -0.07482617 -4.60793369 -0.2633105 0 0 Z " fill="#596868" transform="translate(103,42)"/>
<path d="M0 0 C0.08636719 0.69867188 0.17273437 1.39734375 0.26171875 2.1171875 C0.68204824 4.83968863 1.13743453 7.38196209 2 10 C4.45748398 11.75568004 4.45748398 11.75568004 7 12 C6.67 11.01 6.34 10.02 6 9 C9.36423277 6.03947516 12.69159287 5.07710178 17 4 C16.61402985 6.79828356 16.19863427 7.8205884 14.0625 9.75 C12 11 12 11 10 11 C9.54625 11.495 9.0925 11.99 8.625 12.5 C7 14 7 14 3 14 C2.896875 14.598125 2.79375 15.19625 2.6875 15.8125 C1.89505679 18.33391022 0.88056492 19.19465768 -1 21 C-1.69216095 22.32027855 -2.36220264 23.65261856 -3 25 C-3.06058594 24.39671875 -3.12117188 23.7934375 -3.18359375 23.171875 C-3.26738281 22.37265625 -3.35117187 21.5734375 -3.4375 20.75 C-3.51871094 19.96109375 -3.59992187 19.1721875 -3.68359375 18.359375 C-3.93573288 16.04795436 -3.93573288 16.04795436 -4.5546875 14.05859375 C-5.13440218 11.37868467 -4.93137154 9.03876548 -4.6875 6.3125 C-4.60886719 5.33925781 -4.53023437 4.36601563 -4.44921875 3.36328125 C-4.30097656 2.58339844 -4.15273438 1.80351563 -4 1 C-2 0 -2 0 0 0 Z " fill="#93A7A7" transform="translate(42,70)"/>
<path d="M0 0 C1.65 0 3.3 0 5 0 C5 0.66 5 1.32 5 2 C5.928125 2.12375 5.928125 2.12375 6.875 2.25 C9 3 9 3 10.25 4.625 C11.25295915 7.8010373 11.12721966 10.69228878 11 14 C6.71 14 2.42 14 -2 14 C-2.28571429 4.42857143 -2.28571429 4.42857143 0 0 Z " fill="#F0F7F7" transform="translate(27,81)"/>
<path d="M0 0 C0.33 0 0.66 0 1 0 C1.33 3.63 1.66 7.26 2 11 C1.01 11.33 0.02 11.66 -1 12 C-1.02685412 14.31243792 -1.04632841 16.6249627 -1.0625 18.9375 C-1.07410156 20.22527344 -1.08570313 21.51304688 -1.09765625 22.83984375 C-1.36532549 25.86298403 -1.36532549 25.86298403 0 27 C0.14257189 30.33618231 0.04228157 33.65975606 0 37 C-4.95 37 -9.9 37 -15 37 C-15.99747768 33.01008929 -15.89032392 31.23871653 -15.125 27.3125 C-14.94195313 26.33925781 -14.75890625 25.36601563 -14.5703125 24.36328125 C-14 22 -14 22 -13 21 C-11.33382885 20.95936168 -9.66611905 20.957279 -8 21 C-7.67 20.01 -7.34 19.02 -7 18 C-6.34 17.67 -5.68 17.34 -5 17 C-4.05288658 14.9584524 -4.05288658 14.9584524 -3.3125 12.5625 C-3.04050781 11.75941406 -2.76851562 10.95632812 -2.48828125 10.12890625 C-1.75388718 7.96235278 -1.75388718 7.96235278 -3 6 C-2.06553465 3.96855359 -1.06775224 1.96466413 0 0 Z M-12 22 C-14.4385138 26.72462048 -14.15517763 30.80154939 -14 36 C-9.71 36 -5.42 36 -1 36 C-0.71000509 31.07008655 -0.80296902 27.90748231 -4 24 C-4.99 24 -5.98 24 -7 24 C-7 23.34 -7 22.68 -7 22 C-8.65 22 -10.3 22 -12 22 Z " fill="#9EAFAF" transform="translate(39,59)"/>
<path d="M0 0 C0.04898438 0.81984375 0.09796875 1.6396875 0.1484375 2.484375 C0.22320312 3.56203125 0.29796875 4.6396875 0.375 5.75 C0.44460937 6.81734375 0.51421875 7.8846875 0.5859375 8.984375 C0.9728223 11.80206432 1.55686166 13.5830366 3 16 C-1.75126904 12.7106599 -1.75126904 12.7106599 -2.875 9.5 C-2.99669295 7.06614092 -2.76681968 5.30045905 -2 3 C-2.66 3 -3.32 3 -4 3 C-4.07476562 3.845625 -4.14953125 4.69125 -4.2265625 5.5625 C-5.03235152 12.51440527 -6.04723411 17.0372129 -10.66796875 22.34375 C-12.36295942 24.45130438 -12.83246303 26.31940842 -13 29 C-15.73531631 26.26468369 -15.81251016 24.02575323 -16.1640625 20.26171875 C-16 18 -16 18 -13.8125 15 C-11.26531717 13.18866998 -9.94381995 12.60515357 -7 12 C-6.96261719 11.38511719 -6.92523438 10.77023438 -6.88671875 10.13671875 C-6.82097656 9.32847656 -6.75523438 8.52023438 -6.6875 7.6875 C-6.62949219 6.88699219 -6.57148437 6.08648437 -6.51171875 5.26171875 C-5.60502479 1.25426989 -4.07029813 0 0 0 Z " fill="#A8BBBC" transform="translate(82,64)"/>
<path d="M0 0 C0.66 0.33 1.32 0.66 2 1 C3.0209375 1.309375 3.0209375 1.309375 4.0625 1.625 C6 3 6 3 6.75 6.625 C6.87375 8.295625 6.87375 8.295625 7 10 C7.99 10 8.98 10 10 10 C10 9.34 10 8.68 10 8 C9.34 7.67 8.68 7.34 8 7 C10.31 7 12.62 7 15 7 C14.49396008 9.16874252 14.00016187 10.99967627 13 13 C12.34 13 11.68 13 11 13 C10.67 13.66 10.34 14.32 10 15 C16.43156951 12.8006072 16.43156951 12.8006072 22 9 C22.66 9.33 23.32 9.66 24 10 C22.80322599 10.99326168 21.59189654 11.9689962 20.375 12.9375 C19.36566406 13.75541016 19.36566406 13.75541016 18.3359375 14.58984375 C15.35668351 16.38835661 13.50249216 17.0625445 10 17 C7.82034959 15.06901393 6.3319529 13.4746106 4.625 11.1875 C3.95017578 10.34735352 3.95017578 10.34735352 3.26171875 9.49023438 C0 5.34120916 0 5.34120916 0 3 C-0.99 2.67 -1.98 2.34 -3 2 C-2.01 1.34 -1.02 0.68 0 0 Z " fill="#637A7D" transform="translate(88,79)"/>
<path d="M0 0 C0.99 0 1.98 0 3 0 C3.57828313 10.88029001 2.06802177 20.79334628 -4 30 C-5.2238892 27.55222161 -5.016364 26.26609459 -4.75 23.5625 C-4.68296875 22.78003906 -4.6159375 21.99757813 -4.546875 21.19140625 C-4 19 -4 19 -2.49609375 17.5390625 C-0.41547892 15.3986911 -0.50298256 13.74593144 -0.3125 10.8125 C-0.24675781 9.91144531 -0.18101563 9.01039062 -0.11328125 8.08203125 C-0.07589844 7.39496094 -0.03851563 6.70789062 0 6 C-0.99 7.98 -1.98 9.96 -3 12 C-4.21386936 8.35839192 -3.6674695 7.66834531 -2.0625 4.3125 C-1.49208984 3.10013672 -1.49208984 3.10013672 -0.91015625 1.86328125 C-0.60980469 1.24839844 -0.30945313 0.63351563 0 0 Z " fill="#51676C" transform="translate(128,44)"/>
<path d="M0 0 C0.99 0 1.98 0 3 0 C4.125 6.75 4.125 6.75 3 9 C1.68 9 0.36 9 -1 9 C-0.96877057 10.96756452 -0.96877057 10.96756452 0 13 C2.99615946 14.3045656 2.99615946 14.3045656 6 15 C6 15.33 6 15.66 6 16 C3.03 15.67 0.06 15.34 -3 15 C-4.84222869 11.02466441 -5.16439476 9.49318428 -3.75 5.25 C-2 2 -2 2 0 0 Z " fill="#C9D8DC" transform="translate(20,55)"/>
<path d="M0 0 C2.475 0.495 2.475 0.495 5 1 C5 1.66 5 2.32 5 3 C5.66 2.67 6.32 2.34 7 2 C10.86061033 0.71312989 13.94150283 0.86242382 18 1 C17.67 1.99 17.34 2.98 17 4 C17 3.34 17 2.68 17 2 C16.2575 2.474375 15.515 2.94875 14.75 3.4375 C12.38949985 4.77869327 10.63351523 5.512312 8 6 C7.67 7.32 7.34 8.64 7 10 C5.35 9.67 3.7 9.34 2 9 C0 2.25 0 2.25 0 0 Z " fill="#AABDBB" transform="translate(42,72)"/>
<path d="M0 0 C1.80959422 1.64508566 2.94112363 2.86654689 3.9375 5.125 C4.84645565 7.20721701 4.84645565 7.20721701 7.125 7.75 C7.74375 7.8325 8.3625 7.915 9 8 C8.67 7.01 8.34 6.02 8 5 C11.36423277 2.03947516 14.69159287 1.07710178 19 0 C18.61402985 2.79828356 18.19863427 3.8205884 16.0625 5.75 C14 7 14 7 12 7 C11.54625 7.495 11.0925 7.99 10.625 8.5 C9 10 9 10 5 10 C4.67 11.32 4.34 12.64 4 14 C3.67 14 3.34 14 3 14 C2.690625 13.05125 2.38125 12.1025 2.0625 11.125 C1.12605258 8.13919592 1.12605258 8.13919592 0 6 C-0.039992 4.00039988 -0.04346799 1.99952758 0 0 Z " fill="#7D9393" transform="translate(40,74)"/>
<path d="M0 0 C0.99 0.33 1.98 0.66 3 1 C2.67 1.66 2.34 2.32 2 3 C5.96 3 9.92 3 14 3 C13.67 4.32 13.34 5.64 13 7 C9.37745426 9.07002614 6.12173419 9.44801459 2 9 C0.125 7.5 0.125 7.5 -1 6 C0.32 6 1.64 6 3 6 C2.01 5.34 1.02 4.68 0 4 C0 2.68 0 1.36 0 0 Z " fill="#8EA1A4" transform="translate(19,64)"/>
<path d="M0 0 C0.04898438 0.81984375 0.09796875 1.6396875 0.1484375 2.484375 C0.22320312 3.56203125 0.29796875 4.6396875 0.375 5.75 C0.44460937 6.81734375 0.51421875 7.8846875 0.5859375 8.984375 C0.9728223 11.80206432 1.55686166 13.5830366 3 16 C-1.75126904 12.7106599 -1.75126904 12.7106599 -2.875 9.5 C-2.99669295 7.06614092 -2.76681968 5.30045905 -2 3 C-2.66 3 -3.32 3 -4 3 C-4.33 6.3 -4.66 9.6 -5 13 C-5.66 12.67 -6.32 12.34 -7 12 C-6.91253716 10.56138706 -6.80434652 9.12402492 -6.6875 7.6875 C-6.62949219 6.88699219 -6.57148437 6.08648437 -6.51171875 5.26171875 C-5.60502479 1.25426989 -4.07029813 0 0 0 Z " fill="#67807E" transform="translate(82,64)"/>
<path d="M0 0 C2.4375 0.75 2.4375 0.75 5 2 C5.66015625 4.078125 5.66015625 4.078125 6 6 C7.72985242 5.88487847 9.45888751 5.75744323 11.1875 5.625 C12.15042969 5.55539063 13.11335938 5.48578125 14.10546875 5.4140625 C17.01508938 4.99784147 19.32890774 4.20125904 22 3 C21.375 4.9375 21.375 4.9375 20 7 C16.00502289 8.08953921 12.12273784 8.09816042 8 8 C8 8.66 8 9.32 8 10 C7.01 10 6.02 10 5 10 C4.67 7.69 4.34 5.38 4 3 C2.35 2.67 0.7 2.34 -1 2 C-0.67 1.34 -0.34 0.68 0 0 Z " fill="#B8C4C8" transform="translate(90,79)"/>
<path d="M0 0 C1.51812085 3.0362417 0.96296467 4.79011776 0 8 C-4.94736842 12 -4.94736842 12 -8 12 C-8.33 14.64 -8.66 17.28 -9 20 C-11.1519437 16.77208445 -11.20086443 15.71599191 -11 12 C-10.34 12 -9.68 12 -9 12 C-8.7525 11.4225 -8.505 10.845 -8.25 10.25 C-6.81700012 7.67060021 -5.21575324 5.93878408 -3 4 C-2.34 4 -1.68 4 -1 4 C-0.67 2.68 -0.34 1.36 0 0 Z " fill="#BDCCCC" transform="translate(75,68)"/>
<path d="M0 0 C0.33 0 0.66 0 1 0 C1.16682272 4.92127034 1.24828052 8.50343896 -1 13 C-1.66 12.67 -2.32 12.34 -3 12 C-5.60931266 12.89363605 -5.60931266 12.89363605 -8 14 C-6.66365029 9.99095087 -4.95062557 7.95062557 -2 5 C-0.74563813 2.36777038 -0.74563813 2.36777038 0 0 Z " fill="#B1BFC2" transform="translate(128,48)"/>
<path d="M0 0 C0.66 0.33 1.32 0.66 2 1 C2 1.66 2 2.32 2 3 C-1.85756507 5.15305957 -4.55129785 6.39253254 -9 6 C-8.625 3.5625 -8.625 3.5625 -8 1 C-5.26094655 -0.36952673 -3.02912668 -0.12621361 0 0 Z " fill="#61797F" transform="translate(110,49)"/>
<path d="M0 0 C3.45925163 1.2491742 6.14693203 2.67527795 9 5 C9.185625 4.360625 9.37125 3.72125 9.5625 3.0625 C11 1 11 1 14.625 0.25 C16.295625 0.12625 16.295625 0.12625 18 0 C14.25 3 14.25 3 12 3 C12 4.65 12 6.3 12 8 C9.125 7.6875 9.125 7.6875 6 7 C5.34 6.01 4.68 5.02 4 4 C1.94074861 3.27617533 1.94074861 3.27617533 0 3 C0 2.01 0 1.02 0 0 Z " fill="#798485" transform="translate(82,43)"/>
<path d="M0 0 C2.475 0.99 2.475 0.99 5 2 C4.01958581 4.45103548 3.3486182 5.76758786 1.125 7.25 C-1 8 -1 8 -5 8 C-4.67 6.68 -4.34 5.36 -4 4 C-4 4.66 -4 5.32 -4 6 C-3.34 6 -2.68 6 -2 6 C-1.34 4.02 -0.68 2.04 0 0 Z " fill="#A0B6B8" transform="translate(103,86)"/>
<path d="M0 0 C0.99 0 1.98 0 3 0 C3 3.96 3 7.92 3 12 C3.66 12 4.32 12 5 12 C6.5 13.375 6.5 13.375 8 15 C8.66 15.66 9.32 16.32 10 17 C8.35 17.33 6.7 17.66 5 18 C1.86892164 14.61416198 1.66449222 12.28890538 1.8125 7.75 C1.85310547 6.13351563 1.85310547 6.13351563 1.89453125 4.484375 C1.92933594 3.66453125 1.96414062 2.8446875 2 2 C1.34 2 0.68 2 0 2 C0 1.34 0 0.68 0 0 Z " fill="#B6C3C1" transform="translate(80,62)"/>
<path d="M0 0 C0.49940808 6.11774896 -0.75099398 9.02495953 -4 14 C-5.2238892 11.55222161 -5.016364 10.26609459 -4.75 7.5625 C-4.68296875 6.78003906 -4.6159375 5.99757813 -4.546875 5.19140625 C-3.98220129 2.92867804 -2.74146024 0 0 0 Z " fill="#7A8C8C" transform="translate(128,60)"/>
<path d="M0 0 C1.65 0 3.3 0 5 0 C5.97608217 2.92824652 6.08226668 4.95613276 6 8 C5.34 8 4.68 8 4 8 C3.67 9.65 3.34 11.3 3 13 C2.01 12.34 1.02 11.68 0 11 C1.19899698 7.9168649 2.47700477 4.93720508 4 2 C2.68 1.34 1.36 0.68 0 0 Z " fill="#5B6F71" transform="translate(98,42)"/>
<path d="M0 0 C1.32 0 2.64 0 4 0 C2.49087042 4.98012761 -0.55661849 8.24259942 -4 12 C-4 7.53326743 -1.97429748 3.94859496 0 0 Z " fill="#7A8F90" transform="translate(119,74)"/>
<path d="M0 0 C4.04131267 1.34710422 4.90288434 3.38428334 7 7 C7 7.99 7 8.98 7 10 C4.625 10.125 4.625 10.125 2 10 C0 8 0 8 -0.1953125 6.0546875 C-0.13020833 4.03645833 -0.06510417 2.01822917 0 0 Z M1 3 C1.33 4.65 1.66 6.3 2 8 C2.99 7.67 3.98 7.34 5 7 C3.68 5.68 2.36 4.36 1 3 Z " fill="#696F70" transform="translate(89,64)"/>
<path d="M0 0 C3.16305771 2.86181411 5.1049891 6.2099782 7 10 C6.34 10 5.68 10 5 10 C4.67 11.32 4.34 12.64 4 14 C3.67 14 3.34 14 3 14 C2.690625 13.05125 2.38125 12.1025 2.0625 11.125 C1.12605258 8.13919592 1.12605258 8.13919592 0 6 C-0.039992 4.00039988 -0.04346799 1.99952758 0 0 Z " fill="#3D5353" transform="translate(40,74)"/>
<path d="M0 0 C0.99 0.33 1.98 0.66 3 1 C3 1.66 3 2.32 3 3 C3.66 2.67 4.32 2.34 5 2 C8.86061033 0.71312989 11.94150283 0.86242382 16 1 C15.67 1.99 15.34 2.98 15 4 C15 3.34 15 2.68 15 2 C14.01 2.7734375 14.01 2.7734375 13 3.5625 C8.74209311 5.60274705 6.56906982 5.12354176 2 4 C0.5 1.9375 0.5 1.9375 0 0 Z " fill="#C4CFCF" transform="translate(44,72)"/>
<path d="M0 0 C0.66 0.33 1.32 0.66 2 1 C3.0209375 1.309375 3.0209375 1.309375 4.0625 1.625 C6 3 6 3 6.75 6.625 C6.87375 8.295625 6.87375 8.295625 7 10 C6.5875 9.54625 6.175 9.0925 5.75 8.625 C3.93591905 6.94049626 2.24714373 6.00734029 0 5 C0 4.34 0 3.68 0 3 C-0.99 2.67 -1.98 2.34 -3 2 C-2.01 1.34 -1.02 0.68 0 0 Z " fill="#8D9BA0" transform="translate(88,79)"/>
<path d="M0 0 C0.99 0 1.98 0 3 0 C4.07318928 3.21956783 3.870689 3.90421689 3 7 C3 7.99 3 8.98 3 10 C0.5 12.6875 0.5 12.6875 -2 15 C-1.21824485 10.15311808 0.39844278 5.6233633 2 1 C1.34 0.67 0.68 0.34 0 0 Z " fill="#5A6566" transform="translate(116,55)"/>
<path d="M0 0 C-0.48477157 7.2715736 -0.48477157 7.2715736 -2.8125 10.5625 C-5 12 -5 12 -7.25 11.75 C-8.11625 11.37875 -8.11625 11.37875 -9 11 C-8.21625 10.2575 -7.4325 9.515 -6.625 8.75 C-4.43495469 6.45566682 -3.17268614 4.87841142 -2 2 C-2.66 1.67 -3.32 1.34 -4 1 C-2 0 -2 0 0 0 Z " fill="#607577" transform="translate(36,68)"/>
<path d="M0 0 C0 3.38415511 -0.41689526 3.844951 -2.4375 6.375 C-4.57716898 9.22184771 -5.67062381 11.3768619 -6 15 C-6.33 15 -6.66 15 -7 15 C-7.49842868 8.89424872 -6.42265865 5.88951236 -3 1 C-2.01 0.67 -1.02 0.34 0 0 Z " fill="#69807F" transform="translate(75,78)"/>
<path d="M0 0 C0.99 0.33 1.98 0.66 3 1 C2.04270084 2.12588014 1.08412105 3.2506715 0.125 4.375 C-0.40867187 5.00148438 -0.94234375 5.62796875 -1.4921875 6.2734375 C-2.61432007 7.55836651 -3.79371975 8.79371975 -5 10 C-5.99 10 -6.98 10 -8 10 C-7.67 8.68 -7.34 7.36 -7 6 C-6.01 6 -5.02 6 -4 6 C-1.78831775 3.05763218 -1.78831775 3.05763218 0 0 Z " fill="#DDE2E3" transform="translate(120,62)"/>
<path d="M0 0 C0.66 0 1.32 0 2 0 C1.67 2.64 1.34 5.28 1 8 C0.67 7.34 0.34 6.68 0 6 C-0.99 6 -1.98 6 -3 6 C-3 6.66 -3 7.32 -3 8 C-3.66 7.67 -4.32 7.34 -5 7 C-3.47793991 4.37098712 -2.15634036 2.15634036 0 0 Z " fill="#A5B6B9" transform="translate(116,56)"/>
<path d="M0 0 C0.33 0 0.66 0 1 0 C1 3.3 1 6.6 1 10 C1.99 10 2.98 10 4 10 C4 10.66 4 11.32 4 12 C4.99 12.33 5.98 12.66 7 13 C7 13.66 7 14.32 7 15 C4.525 14.01 4.525 14.01 2 13 C2 12.34 2 11.68 2 11 C1.34 11 0.68 11 0 11 C0 7.37 0 3.74 0 0 Z " fill="#E3EDEC" transform="translate(83,63)"/>
<path d="M0 0 C0.33 2.31 0.66 4.62 1 7 C0.34 6.67 -0.32 6.34 -1 6 C-1.66 7.32 -2.32 8.64 -3 10 C-3.33 7.03 -3.66 4.06 -4 1 C-2 0 -2 0 0 0 Z " fill="#899E9C" transform="translate(42,70)"/>
<path d="M0 0 C0.99 0 1.98 0 3 0 C3.625 3.375 3.625 3.375 4 7 C3.34 7.66 2.68 8.32 2 9 C2 7.02 2 5.04 2 3 C0.68 2.67 -0.64 2.34 -2 2 C-1.34 1.34 -0.68 0.68 0 0 Z " fill="#6F8187" transform="translate(20,55)"/>
<path d="M0 0 C0.33 0.66 0.66 1.32 1 2 C0.125 3.9375 0.125 3.9375 -1 6 C-1.33 6.99 -1.66 7.98 -2 9 C-3.32 8.67 -4.64 8.34 -6 8 C-4.02 5.36 -2.04 2.72 0 0 Z " fill="#BACCCE" transform="translate(118,74)"/>
<path d="M0 0 C0.99 0 1.98 0 3 0 C2.67 1.65 2.34 3.3 2 5 C0 2 0 2 0 0 Z M-8 2 C-5.36 2 -2.72 2 0 2 C-0.33 2.99 -0.66 3.98 -1 5 C-1.33 4.67 -1.66 4.34 -2 4 C-3.99958364 3.95919217 -6.00045254 3.95745644 -8 4 C-8 3.34 -8 2.68 -8 2 Z " fill="#DDE3E2" transform="translate(113,62)"/>
<path d="M0 0 C-0.99 0.33 -1.98 0.66 -3 1 C-3 1.66 -3 2.32 -3 3 C-6.3 3 -9.6 3 -13 3 C-3.5 -1.75 -3.5 -1.75 0 0 Z " fill="#A5AFB3" transform="translate(53,55)"/>
<path d="M0 0 C2.31 0 4.62 0 7 0 C7 0.66 7 1.32 7 2 C6.195625 2.12375 5.39125 2.2475 4.5625 2.375 C3.2940625 2.684375 3.2940625 2.684375 2 3 C1.67 3.66 1.34 4.32 1 5 C0.34 5 -0.32 5 -1 5 C-0.67 3.35 -0.34 1.7 0 0 Z " fill="#A1B9BD" transform="translate(102,50)"/>
<path d="M0 0 C0.66 0.33 1.32 0.66 2 1 C0 4 0 4 -3 4.8125 C-3.99 4.874375 -4.98 4.93625 -6 5 C-6.66 4.34 -7.32 3.68 -8 3 C-7.05125 2.690625 -6.1025 2.38125 -5.125 2.0625 C-2.13919592 1.12605258 -2.13919592 1.12605258 0 0 Z " fill="#C8D2D3" transform="translate(110,82)"/>
<path d="M0 0 C1.65 0 3.3 0 5 0 C3.92598892 2.91517292 3.22189824 4.77810176 1 7 C0.67 4.69 0.34 2.38 0 0 Z " fill="#E7F3F5" transform="translate(97,44)"/>
<path d="M0 0 C-3.75 3 -3.75 3 -6 3 C-6 4.65 -6 6.3 -6 8 C-7.32 7.67 -8.64 7.34 -10 7 C-9.01 7 -8.02 7 -7 7 C-7 5.02 -7 3.04 -7 1 C-4.53721199 -0.231394 -2.7204945 -0.07159196 0 0 Z " fill="#9FA6A8" transform="translate(100,43)"/>
<path d="M0 0 C0.99 0.33 1.98 0.66 3 1 C2.01 1.495 2.01 1.495 1 2 C0.67 2.99 0.34 3.98 0 5 C-1.32 5 -2.64 5 -4 5 C-3.67 3.68 -3.34 2.36 -3 1 C-3 1.66 -3 2.32 -3 3 C-2.34 3 -1.68 3 -1 3 C-0.67 2.01 -0.34 1.02 0 0 Z " fill="#A5C0C3" transform="translate(102,89)"/>
<path d="M0 0 C-0.39803561 2.88575819 -0.79009069 3.82189513 -3.0625 5.75 C-3.701875 6.1625 -4.34125 6.575 -5 7 C-5.33 6.01 -5.66 5.02 -6 4 C-2.25 0 -2.25 0 0 0 Z " fill="#536061" transform="translate(59,74)"/>
<path d="M0 0 C-1 2 -2 4 -3 6 C-5.475 5.01 -5.475 5.01 -8 4 C-2.7826087 0 -2.7826087 0 0 0 Z " fill="#B0BABE" transform="translate(61,50)"/>
<path d="M0 0 C0.33 0.99 0.66 1.98 1 3 C3.01508358 3.73323796 3.01508358 3.73323796 5 4 C3.02 4.99 3.02 4.99 1 6 C0.01 5.34 -0.98 4.68 -2 4 C-2 3.01 -2 2.02 -2 1 C-1.34 0.67 -0.68 0.34 0 0 Z " fill="#414F50" transform="translate(99,52)"/>
<path d="M0 0 C0.33 0 0.66 0 1 0 C1.125 5.75 1.125 5.75 0 8 C-0.99 8 -1.98 8 -3 8 C-2.690625 7.236875 -2.38125 6.47375 -2.0625 5.6875 C-1.32106407 3.81210323 -0.63771783 1.91315348 0 0 Z " fill="#B8C6C7" transform="translate(123,66)"/>
</svg>
